<svg width="419" height="540" viewBox="0 0 419 540" fill="none" xmlns="http://www.w3.org/2000/svg">
<path d="M32.3518 304.399C28.5428 300.096 25.7872 295.092 25.3592 289.169C27.3592 276.97 31.4735 270.376 36.2106 265.737C38.5941 263.402 41.1454 261.553 43.7078 259.722C43.823 259.64 43.9382 259.557 44.0535 259.475C46.4936 257.733 48.9401 255.986 51.1989 253.853L51.4277 253.637L51.332 253.338C50.2082 249.82 49.1748 246.738 48.251 243.99L48.1215 243.605C47.2506 241.014 46.4814 238.726 45.8279 236.645C44.4559 232.275 43.6055 228.853 43.4026 225.527C42.9984 218.902 45.155 212.565 51.1919 199.834C56.9446 192.329 61.9399 183.495 66.4225 175.567C67.0681 174.426 67.703 173.303 68.3281 172.205C70.8196 167.831 73.1509 163.866 75.3773 160.706C77.5709 157.592 79.6216 155.322 81.5732 154.194C84.7018 154.208 87.113 154.134 88.966 153.952C90.8374 153.768 92.1824 153.469 93.1327 153.008C94.1106 152.533 94.6763 151.884 94.9594 151.043C95.2289 150.242 95.2276 149.304 95.1804 148.288C95.1682 148.026 95.1527 147.755 95.1366 147.474C95.026 145.54 94.8889 143.144 95.6327 140.111C96.4833 136.643 98.4969 132.315 103.098 126.968L103.127 126.934L103.149 126.896L112.049 111.809C122.067 110.359 132.215 113.14 142.041 118.127C151.944 123.154 161.48 130.4 170.171 137.736C174.428 141.329 178.477 144.938 182.265 148.316L182.498 148.523C186.35 151.958 189.934 155.148 193.18 157.817C196.422 160.484 199.35 162.648 201.891 164.02C204.409 165.379 206.665 166.026 208.507 165.458L208.612 165.425L208.693 165.352C209.073 165.011 209.309 164.524 209.449 163.964C209.59 163.402 209.645 162.728 209.633 161.964C209.608 160.436 209.312 158.469 208.816 156.154C207.821 151.52 205.997 145.391 203.799 138.397C202.956 135.714 202.058 132.902 201.129 129.996C197.209 117.727 192.749 103.767 189.632 90.6694C187.705 82.5711 186.297 74.821 185.847 68.0208C185.397 61.2096 185.913 55.4074 187.785 51.1697C189.64 46.971 192.829 44.2957 197.832 43.6819C202.885 43.062 209.832 44.541 219.157 48.8214L219.387 48.9266L219.607 48.8048C249.258 32.4545 278.287 36.4019 295.764 52.5L296.061 52.7732L296.391 52.5412C297.601 51.6898 298.78 50.7958 299.951 49.9081L299.977 49.8882C301.159 48.992 302.333 48.1026 303.536 47.2581C305.94 45.5699 308.441 44.0757 311.286 43.1041C316.947 41.1708 324.081 41.2706 334.66 46.3102L334.788 46.3714L334.93 46.3558C355.965 44.0288 369.293 43.0745 377.844 43.2316C386.434 43.3893 390.043 44.672 391.839 46.6356C392.737 47.6168 393.222 48.81 393.624 50.2505C393.782 50.8185 393.925 51.4131 394.076 52.0446C394.117 52.2164 394.159 52.3909 394.202 52.5684C394.402 53.3929 394.624 54.2696 394.913 55.1877C396.081 58.8896 398.324 63.1939 404.549 67.8295L404.767 67.9923L405.023 67.8967C410.395 65.8859 418.124 65.4149 426.791 66.1344C435.444 66.8527 444.978 68.7528 453.926 71.4388C462.876 74.1255 471.22 77.592 477.503 81.4325C480.644 83.3529 483.256 85.358 485.169 87.3941C487.086 89.4329 488.275 91.4741 488.628 93.4674L488.714 93.9495L489.197 93.8742C496.769 92.6954 502.355 94.07 506.834 96.8628C511.332 99.6676 514.755 103.928 517.949 108.602L517.954 108.609C521.805 114.043 524.048 120.924 524.698 127.493C525.348 134.07 524.395 140.258 521.943 144.34C499.38 179.236 467.809 209.263 436.873 238.301C435.937 239.18 435.002 240.058 434.067 240.935C404.132 269.022 375.06 296.299 355.775 326.244L355.753 326.279L355.736 326.317C349.409 340.941 346.783 352.015 347.169 361.886C347.557 371.766 350.959 380.384 356.58 390.096L356.584 390.102C357.567 391.74 359.472 394.098 362.136 397.044C364.806 399.999 368.261 403.569 372.364 407.639C380.57 415.779 391.383 425.929 403.727 437.162C428.41 459.623 459.226 486.427 487.602 510.182C488.953 511.619 489.809 513.025 490.213 514.24C490.623 515.47 490.553 516.442 490.165 517.083C489.79 517.703 489.037 518.141 487.771 518.14C486.508 518.14 484.79 517.696 482.62 516.605C435.188 471.605 387.273 431.118 340.301 393.718L340.282 393.704L340.263 393.691C336.659 391.337 330.709 388.063 325.619 385.439C323.072 384.125 320.732 382.971 319.001 382.173C318.137 381.775 317.417 381.461 316.895 381.261C316.637 381.162 316.413 381.085 316.239 381.041C316.155 381.019 316.06 380.999 315.969 380.994C315.94 380.993 315.903 380.992 315.861 380.995C296.584 375.9 278.197 379.116 260.506 388.541L260.485 388.552L260.465 388.566C255.051 392.154 249.781 395.547 244.509 398.941C227.674 409.779 210.815 420.631 189.207 437.92L164.732 454.172L129.179 473.208C129.178 473.208 129.177 473.209 129.176 473.209C112.984 481.719 95.6823 486.109 83.0407 484.407C76.7281 483.557 71.6292 481.196 68.3797 477.129C65.1344 473.068 63.6678 467.222 64.7869 459.261L64.8253 458.988L64.6145 458.81C55.8146 451.37 50.8644 446.228 49.1287 440.831C47.4073 435.478 48.8189 429.758 53.1574 421.045L53.386 420.586L52.9212 420.369C46.9966 417.605 43.0167 415.247 40.8448 411.347C38.6731 407.448 38.2525 401.896 39.7925 392.587L39.8443 392.273L39.583 392.093C30.8541 386.075 25.0791 381.17 21.5008 376.791C17.9334 372.426 16.5666 368.607 16.6152 364.737C16.6642 360.841 18.1475 356.829 20.4233 352.074C21.3355 350.168 22.3684 348.155 23.4798 345.989C23.753 345.457 24.031 344.915 24.313 344.363C25.7408 341.572 27.2698 338.533 28.8074 335.179L28.811 335.171L28.8144 335.163C29.4087 333.738 30.6366 332.672 32.4282 331.884C34.2242 331.094 36.5436 330.604 39.2367 330.31C43.784 329.815 49.2872 329.891 54.9409 329.969C55.9894 329.984 57.043 329.998 58.0966 330.009L58.2796 330.011L58.4205 329.895C59.003 329.413 59.4144 328.895 59.6324 328.33C59.8536 327.758 59.8613 327.173 59.6956 326.593C59.3748 325.469 58.4032 324.361 57.1036 323.245C55.2704 321.672 52.5921 319.933 49.585 317.981C48.3101 317.153 46.9762 316.287 45.6225 315.379C41.043 312.307 36.1769 308.719 32.3518 304.399Z" fill="#A2C3A2" fill-opacity="0.25" stroke="#A2C3A2"/>
</svg>
