<svg width="134" height="183" viewBox="0 0 134 183" fill="none" xmlns="http://www.w3.org/2000/svg">
<path d="M107.814 11.8338C116.405 5.28845 121.487 3.78739 130.82 4.58512" stroke="#466D46" stroke-width="5" stroke-linecap="round"/>
<path d="M54.6357 62.0504C49.8987 71.4556 47.4287 76.3598 43.3901 84.3783" stroke="#466D46" stroke-width="5" stroke-linecap="round"/>
<path d="M15.3004 157.73C11.9665 169.09 8.20779 174.327 3.39715 179.715" stroke="#466D46" stroke-width="5" stroke-linecap="round"/>
<g clip-path="url(#clip0_109_124)">
<path d="M47.8399 44.1864C47.0629 44.1793 47.2333 46.8581 48.0618 46.843C62.4382 46.3984 68.0403 38.5402 70.4114 37.7239C75.9289 35.5152 93.7739 38.1427 94.1561 37.5211C96.2052 35.9723 95.3247 33.8044 94.3534 31.6173C95.5575 27.0031 93.688 24.7472 91.5324 22.7109C90.79 20.1499 88.3168 15.8681 86.7544 16.5196C86.7544 16.5196 79.8291 19.5926 79.3802 19.3129C78.8386 19.0049 79.7472 14.7776 80.1102 12.1222C80.1952 10.2517 76.6964 9.28891 73.3481 9.78737C70.1562 8.36166 67.7811 9.13782 65.3356 9.72419C64.1684 9.7591 59.5865 9.85634 58.7223 13.2524C58.1967 14.8108 65.1171 21.9197 67.7656 35.3887C68.6354 39.8511 55.884 44.6215 47.8399 44.1864Z" fill="#466D46"/>
</g>
<g clip-path="url(#clip1_109_124)">
<path d="M59.5344 115.043C60.2389 115.371 61.1917 112.862 60.4311 112.533C47.1578 106.992 38.8074 111.83 36.311 111.592C30.374 111.321 15.2133 101.549 14.6082 101.957C12.102 102.52 12.0071 104.858 11.987 107.251C8.98233 110.954 9.75152 113.781 10.872 116.526C10.4888 119.165 10.9698 124.086 12.6617 124.139C12.6617 124.139 20.2379 124.206 20.531 124.646C20.8967 125.15 18.3211 128.623 16.8925 130.891C16.0414 132.559 18.8289 134.882 22.0835 135.813C24.4001 138.431 26.8835 138.707 29.3526 139.185C30.4297 139.635 34.6416 141.442 36.8329 138.707C37.956 137.506 34.5952 128.171 37.7542 114.813C38.8077 110.39 52.3904 111.32 59.5344 115.043Z" fill="#466D46"/>
</g>
<defs>
<clipPath id="clip0_109_124">
<rect width="35" height="49.2104" fill="white" transform="translate(91.7925 6.00012) rotate(82.5284)"/>
</clipPath>
<clipPath id="clip1_109_124">
<rect width="35" height="49.2104" fill="white" transform="translate(3.72412 131.633) rotate(-73.0423)"/>
</clipPath>
</defs>
</svg>
