<svg width="313" height="141" viewBox="0 0 313 141" fill="none" xmlns="http://www.w3.org/2000/svg">
<path d="M3.00008 10.6059C13.7753 9.87686 18.8431 11.4241 26.1925 17.2323" stroke="#649B64" stroke-width="5" stroke-linecap="round"/>
<path d="M100 38C110.312 40.1364 115.689 41.2504 124.48 43.0718" stroke="#649B64" stroke-width="5" stroke-linecap="round"/>
<path d="M202.993 68.0806C212.468 72.6765 217.409 75.0729 225.487 78.9912" stroke="#649B64" stroke-width="5" stroke-linecap="round"/>
<path d="M292.5 120C305 124 308 130 309.914 137.938" stroke="#649B64" stroke-width="5" stroke-linecap="round"/>
<g clip-path="url(#clip0_109_117)">
<path d="M34.1678 43.8706C33.3972 43.9705 33.9346 46.6004 34.7531 46.4714C48.9316 44.0529 53.3992 35.4987 55.6354 34.3639C60.7965 31.4171 78.8333 31.5642 79.1264 30.8959C80.9429 29.0799 79.7725 27.0538 78.5095 25.0212C79.0673 20.2851 76.9052 18.308 74.4899 16.5876C73.4022 14.1532 70.3634 10.2524 68.9054 11.1126C68.9054 11.1126 62.4689 15.1093 61.9857 14.894C61.4069 14.6635 61.7253 10.3513 61.7194 7.67123C61.5463 5.80681 57.9482 5.33461 54.7004 6.28903C51.3426 5.31607 49.0969 6.41164 46.7554 7.3289C45.6041 7.52408 41.0791 8.25084 40.6905 11.7335C40.3842 13.3494 48.2169 19.4385 52.6935 32.415C54.169 36.7152 42.1953 43.1948 34.1678 43.8706Z" fill="#649B64"/>
</g>
<g clip-path="url(#clip1_109_117)">
<path d="M193.332 50.177C194.081 50.3847 194.609 47.753 193.804 47.5534C179.802 44.2655 172.358 50.4078 169.857 50.5833C163.956 51.2901 147.397 44.1377 146.867 44.6394C144.487 45.6056 144.777 47.9274 145.15 50.2913C142.794 54.4373 144.017 57.0998 145.572 59.6243C145.627 62.2901 146.909 67.0658 148.587 66.8405C148.587 66.8405 156.071 65.6627 156.433 66.049C156.876 66.4865 154.905 70.3351 153.868 72.8064C153.302 74.5913 156.433 76.426 159.796 76.8103C162.511 79.0129 165.006 78.8773 167.52 78.9432C168.657 79.2113 173.108 80.3021 174.821 77.245C175.731 75.8755 170.885 67.2189 171.809 53.5231C172.123 48.9876 185.674 47.6766 193.332 50.177Z" fill="#649B64"/>
</g>
<g clip-path="url(#clip2_109_117)">
<path d="M260.249 64.5047C260.567 63.7954 258.043 62.8803 257.726 63.6457C252.384 77.0003 257.346 85.2774 257.146 87.7771C256.964 93.7175 247.419 109.023 247.836 109.622C248.436 112.119 250.775 112.179 253.168 112.163C256.916 115.112 259.731 114.301 262.46 113.14C265.104 113.483 270.017 112.929 270.045 111.236C270.045 111.236 269.998 103.66 270.434 103.36C270.933 102.987 274.444 105.51 276.733 106.905C278.413 107.731 280.695 104.909 281.577 101.641C284.16 99.2855 284.398 96.7983 284.839 94.3224C285.274 93.2386 287.017 89.0001 284.25 86.85C283.032 85.7449 273.749 89.2449 260.344 86.2859C255.907 85.2986 256.634 71.7036 260.249 64.5047Z" fill="#649B64"/>
</g>
<defs>
<clipPath id="clip0_109_117">
<rect width="35" height="49.2104" fill="white" transform="translate(72.4482) rotate(74.6199)"/>
</clipPath>
<clipPath id="clip1_109_117">
<rect width="35" height="49.2104" fill="white" transform="translate(141 75.6995) rotate(-82.4859)"/>
</clipPath>
<clipPath id="clip2_109_117">
<rect width="35" height="49.2104" fill="white" transform="translate(277.672 120.061) rotate(-163.899)"/>
</clipPath>
</defs>
</svg>
